<?xml version="1.0" encoding="UTF-8" standalone="no"?>
<svg width="89px" height="18px" viewBox="0 0 89 18" version="1.1" xmlns="http://www.w3.org/2000/svg" xmlns:xlink="http://www.w3.org/1999/xlink" xmlns:sketch="http://www.bohemiancoding.com/sketch/ns">
    <!-- Generator: Sketch 3.4.4 (17249) - http://www.bohemiancoding.com/sketch -->
    <title>EY logo</title>
    <desc>Created with Sketch.</desc>
    <defs></defs>
    <g id="Page-1" stroke="none" stroke-width="1" fill="none" fill-rule="evenodd" sketch:type="MSPage">
        <g id="Desktop" sketch:type="MSArtboardGroup" transform="translate(-277.000000, -3072.000000)" fill="#E82429">
            <g id="Footer-Big---subsc" sketch:type="MSLayerGroup" transform="translate(0.000000, 2833.000000)">
                <g id="EY-logo" transform="translate(277.000000, 239.000000)" sketch:type="MSShapeGroup">
                    <path d="M7.10542736e-15,3.23076923 L6.26031746,3.23076923 L6.26031746,5.21538462 L2.25555556,5.21538462 L2.25555556,7.75384615 L6.16825397,7.75384615 L6.16825397,9.73846154 L2.25555556,9.73846154 L2.25555556,12.4153846 L6.26031746,12.4153846 L6.26031746,14.3995385 L7.10542736e-15,14.3995385 L7.10542736e-15,3.23076923" id="Shape"></path>
                    <path d="M7.82539683,5.79576027 L9.6781746,5.79576027 C9.6781746,6.16499103 9.6781746,6.50560642 9.66252381,6.89791411 C10.0243333,6.24945257 10.7617619,5.52391411 12.2375397,5.53868334 C14.933619,5.53868334 15.4597619,7.61560642 15.4597619,9.08699103 L15.4597619,14.0854526 L13.4859206,14.0854526 L13.4859206,9.58545257 C13.4859206,8.34668334 13.0794603,7.39545257 11.6943651,7.39545257 C10.2940794,7.41068334 9.81212698,8.34668334 9.81212698,9.5185295 L9.81212698,14.0942218 L7.82539683,14.0942218 L7.82539683,5.79576027" id="Shape"></path>
                    <path d="M25.4205714,13.0970769 C25.4205714,14.4558462 25.1646349,15.3327692 24.6523016,16.0273846 C23.9447937,16.9790769 22.5596984,17.7341538 20.8574444,17.7350769 C18.2815079,17.7350769 17.0473968,16.1944615 16.7458889,14.9109231 L19.0355079,14.9109231 C19.2164127,15.2801538 19.5418571,15.5570769 19.9101111,15.7555385 C20.3170317,15.9863077 20.7386825,16.0329231 21.014873,16.0329231 C22.1896032,16.0329231 23.469746,15.2164615 23.469746,13.5410769 L23.469746,12.8469231 C23.0628254,13.5872308 22.1896032,14.3270769 20.7888571,14.3270769 C18.4094762,14.3270769 16.5714286,12.5141538 16.5714286,9.96323077 C16.5714286,7.26 18.4996984,5.53846154 20.7888571,5.53846154 C21.9787778,5.53846154 22.998381,6.09230769 23.4586984,6.89769231 L23.4586984,5.78030769 L25.4463492,5.78030769 L25.4463492,13.0975385 L25.4205714,13.0970769 Z M18.5079841,9.90923077 C18.5079841,11.3404615 19.5667143,12.4476923 20.9936984,12.4610769 C21.7315873,12.4610769 22.3194127,12.2044615 22.7557937,11.7526154 C23.1926349,11.3136923 23.4485714,10.6943077 23.4637619,9.98492308 C23.4637619,9.35030769 23.2676667,8.68615385 22.8602857,8.20338462 C22.4690159,7.70492308 21.8517302,7.37307692 20.9936984,7.37307692 C19.653254,7.37307692 18.5240952,8.41476923 18.5240952,9.89446154 L18.5240952,9.92630769 L18.5079841,9.90923077 L18.5079841,9.90923077 Z" id="Shape"></path>
                    <rect id="Rectangle-path" x="27.1587302" y="6" width="1.97936508" height="8.30769231"></rect>
                    <path d="M30.8412698,5.79576027 L32.693127,5.79576027 C32.693127,6.16499103 32.693127,6.50560642 32.6783968,6.89791411 C33.0402063,6.24945257 33.7780952,5.52391411 35.253873,5.53868334 C37.9494921,5.53868334 38.4760952,7.61560642 38.4760952,9.08699103 L38.4760952,14.0854526 L36.5031746,14.0854526 L36.5031746,9.58545257 C36.5031746,8.34668334 36.0967143,7.39545257 34.7111587,7.39545257 C33.3104127,7.41068334 32.828,8.34668334 32.828,9.5185295 L32.828,14.0942218 L30.8555397,14.0942218 L30.8555397,5.79576027" id="Shape"></path>
                    <path d="M41.1160159,10.5969231 C41.2062381,11.9349231 42.358873,12.6738462 43.5096667,12.6503077 C44.4735714,12.6503077 45.1212381,12.2132308 45.4977778,11.5333846 L47.5305397,11.5333846 C47.1397302,12.4541538 46.5514444,13.1487692 45.859127,13.6172308 C45.1668095,14.1013846 44.3534286,14.3418462 43.4944762,14.3418462 C40.9489206,14.3418462 39.1269841,12.2732308 39.1269841,9.96276923 C39.1269841,7.60707692 40.9645714,5.53846154 43.4640952,5.53846154 C44.6995873,5.53846154 45.7656825,6 46.5486825,6.80676923 C47.5581587,7.86830769 47.9296349,9.16061538 47.7455079,10.5969231 L41.1160159,10.5969231 L41.1160159,10.5969231 Z M45.830127,9.08538462 C45.7550952,8.29984615 44.9265238,7.19815385 43.481127,7.21292308 C42.0200794,7.21292308 41.2223492,8.26984615 41.1463968,9.08538462 L45.830127,9.08538462 L45.830127,9.08538462 Z" id="Shape"></path>
                    <path d="M54.9614444,10.4307692 L51.5555556,3.23076923 L53.9947778,3.23076923 L56.1122381,8.30769231 L58.2301587,3.23076923 L60.6233492,3.23076923 L57.217,10.4307692 L57.217,14.3995385 L54.9614444,14.3995385 L54.9614444,10.4307692" id="Shape"></path>
                    <path d="M68.8027302,14.0847692 L66.8302698,14.0847692 L66.8302698,12.8921538 C66.302746,13.8586154 65.2030476,14.3418462 64.0439683,14.3418462 C61.393,14.3418462 59.8412698,12.2732308 59.8412698,9.93276923 C59.8412698,7.32 61.7244286,5.53846154 64.0439683,5.53846154 C65.5496667,5.53846154 66.4831905,6.32307692 66.8519048,7.00338462 L66.8519048,5.79507692 L68.8243651,5.79507692 L68.8243651,14.0847692 L68.8027302,14.0847692 Z M61.8146508,9.96184615 C61.8146508,10.9772308 62.551619,12.5003077 64.3463968,12.4836923 C65.4465556,12.4836923 66.1683333,11.9095385 66.544873,11.1544615 C66.7409683,10.7926154 66.8316508,10.3998462 66.8611111,9.99184615 C66.8763016,9.59861538 66.8012698,9.19153846 66.6360159,8.82876923 C66.2898571,8.04323077 65.521127,7.36430769 64.330746,7.36430769 C62.7343651,7.36430769 61.8312222,8.66261538 61.8312222,9.94661538 L61.8312222,9.97707692 L61.8146508,9.96184615 L61.8146508,9.96184615 Z" id="Shape"></path>
                    <path d="M70.4285714,5.79553846 L72.2974603,5.79553846 L72.2974603,6.88292308 C72.6574286,6.14261538 73.3368571,5.55369231 74.5870794,5.53846154 L74.5870794,7.53184615 L74.4954762,7.53184615 C73.1108413,7.53184615 72.402873,8.18123077 72.402873,9.61569231 L72.402873,14.0856923 L70.4294921,14.0856923 L70.4285714,5.79553846" id="Shape"></path>
                    <path d="M83.4712063,14.4050769 L81.5889683,14.4050769 L81.5889683,13.2124615 C81.227619,13.8318462 80.444619,14.6621538 78.7575556,14.6621538 C76.2129206,14.6621538 74.5714286,12.6687692 74.5714286,10.2530769 C74.5714286,7.56507692 76.4840476,5.85876923 78.7271746,5.85876923 C80.3088254,5.85876923 81.2128889,6.68953846 81.4890794,7.18753846 L81.4890794,3.23076923 L83.4615397,3.23076923 L83.4615397,14.4046154 L83.4712063,14.4050769 Z M76.5443492,10.2355385 C76.5443492,11.6201538 77.5565873,12.774 79.0760952,12.7873846 C79.797873,12.7873846 80.4464603,12.5007692 80.9127619,12.0327692 C81.3804444,11.5638462 81.6511111,10.9153846 81.6211905,10.1903077 C81.6211905,9.46569231 81.3344127,8.84584615 80.8828413,8.40784615 C80.4312698,7.95507692 79.799254,7.68369231 79.0903651,7.68369231 C77.479254,7.68369231 76.5461905,8.92153846 76.5461905,10.2203077 L76.5461905,10.2521538 L76.5443492,10.2355385 L76.5443492,10.2355385 Z" id="Shape"></path>
                    <path d="M25.0856443,3.25384615 L26.8937712,3.25384615 L28.4109776,4.76584615 L28.4109776,1.90523077 C28.4109776,1.28907692 27.9124538,0.789230769 27.29793,0.789230769 C27.0314062,0.789230769 26.7897395,0.882923077 26.5977871,1.02 C26.3616443,0.415384615 25.7890093,0 25.0985331,0 C24.2027554,0 23.4763744,0.727846154 23.4763744,1.626 C23.4630252,2.53846154 24.1778982,3.23076923 25.0985331,3.23076923" id="Shape"></path>
                    <path d="M86.5221111,3.48692308 L86.2380952,3.48692308 L86.2380952,3.24184615 L87.0984286,3.24184615 L87.0984286,3.48692308 L86.8144127,3.48692308 L86.8144127,4.52215385 L86.5221111,4.52215385 L86.5221111,3.48692308 L86.5221111,3.48692308 Z M87.2678254,3.24184615 L87.6388413,3.24184615 L87.9803968,4.11876923 L88.3164286,3.23076923 L88.6851429,3.23076923 L88.6851429,4.51107692 L88.4117143,4.51107692 L88.4117143,3.57876923 L88.0724603,4.52215385 L87.8805079,4.52215385 L87.5417143,3.58476923 L87.5417143,4.52215385 L87.2678254,4.52215385 L87.2678254,3.24184615 L87.2678254,3.24184615 Z" id="Shape"></path>
                </g>
            </g>
        </g>
    </g>
</svg>