<?xml version="1.0" encoding="UTF-8" standalone="no"?>
<svg width="56px" height="57px" viewBox="0 0 56 57" version="1.1" xmlns="http://www.w3.org/2000/svg" xmlns:xlink="http://www.w3.org/1999/xlink" xmlns:sketch="http://www.bohemiancoding.com/sketch/ns">
    <!-- Generator: Sketch 3.5.2 (25235) - http://www.bohemiancoding.com/sketch -->
    <title>Group</title>
    <desc>Created with Sketch.</desc>
    <defs></defs>
    <g id="Page-1" stroke="none" stroke-width="1" fill="none" fill-rule="evenodd" sketch:type="MSPage">
        <g id="Group" sketch:type="MSLayerGroup">
            <path d="M14.48935,56.2762451 L14.4784334,56.2762451 L1.1598023,56.2762451 C0.757789521,56.2762451 0.384254625,56.0629638 0.173043661,55.7123643 C-0.0381673024,55.3612779 -0.0571525575,54.9230286 0.122258104,54.5539253 L6.78133636,40.8897988 C6.97783375,40.4870964 7.3793719,40.2324249 7.81888055,40.2324249 C8.25838921,40.2324249 8.65992736,40.4870964 8.85642475,40.8897988 L15.4500039,54.4195289 C15.5757812,54.60895 15.6493491,54.8387874 15.6493491,55.0861548 C15.6493491,55.7435287 15.1296277,56.2762451 14.48935,56.2762451" id="Fill-21" fill="#3FB1E5" sketch:type="MSShapeGroup"></path>
            <path d="M54.4806259,36.3659722 L54.4697094,36.3659722 L41.1510782,36.3659722 C40.7490655,36.3659722 40.3755306,36.1526909 40.1643196,35.8020914 C39.9531086,35.451005 39.9341234,35.0127557 40.1135341,34.6436524 L46.7726123,20.9795259 C46.9691097,20.5768235 47.3706478,20.3221519 47.8101565,20.3221519 C48.2496652,20.3221519 48.6512033,20.5768235 48.8477007,20.9795259 L55.4412798,34.509256 C55.5670571,34.6986771 55.640625,34.9285145 55.640625,35.1758819 C55.640625,35.8332558 55.1209036,36.3659722 54.4806259,36.3659722" id="Fill-21" fill="#3FB1E5" sketch:type="MSShapeGroup"></path>
            <path d="M34.5744045,16.8039167 L34.5634879,16.8039167 L21.2448568,16.8039167 C20.842844,16.8039167 20.4693091,16.5906353 20.2580982,16.2400359 C20.0468872,15.8889495 20.0279019,15.4507002 20.2073126,15.0815969 L26.8663909,1.41747035 C27.0628883,1.01476793 27.4644264,0.76009639 27.9039351,0.76009639 C28.3434437,0.76009639 28.7449819,1.01476793 28.9414793,1.41747035 L35.5350584,14.9472004 C35.6608357,15.1366215 35.7344036,15.3664589 35.7344036,15.6138263 C35.7344036,16.2712003 35.2146822,16.8039167 34.5744045,16.8039167" id="Fill-21" fill="#3FB1E5" sketch:type="MSShapeGroup"></path>
            <path d="M21.2904542,56.2598302 C20.6574466,56.2598302 20.1444761,55.7468441 20.1444761,55.1138173 L20.1444761,41.9557695 C20.1444761,41.3227427 20.6574466,40.8102255 21.2904542,40.8102255 L34.4476337,40.8102255 C35.0806413,40.8102255 35.5940808,41.3227427 35.5940808,41.9557695 L35.5940808,55.1138173 C35.5940808,55.7468441 35.0806413,56.2598302 34.4476337,56.2598302 L21.2904542,56.2598302 Z" id="Fill-26" fill="#38BB4C" sketch:type="MSShapeGroup"></path>
            <path d="M1.26538965,36.4130303 C0.632382084,36.4130303 0.119411507,35.9000442 0.119411507,35.2670174 L0.119411507,22.1089696 C0.119411507,21.4759429 0.632382084,20.9634256 1.26538965,20.9634256 L14.4225692,20.9634256 C15.0555767,20.9634256 15.5690162,21.4759429 15.5690162,22.1089696 L15.5690162,35.2670174 C15.5690162,35.9000442 15.0555767,36.4130303 14.4225692,36.4130303 L1.26538965,36.4130303 Z" id="Fill-26" fill="#38BB4C" sketch:type="MSShapeGroup"></path>
            <path d="M41.1372541,16.7444951 C40.5042465,16.7444951 39.9912759,16.231509 39.9912759,15.5984822 L39.9912759,2.44043442 C39.9912759,1.80740764 40.5042465,1.2948904 41.1372541,1.2948904 L54.2944336,1.2948904 C54.9274412,1.2948904 55.4408807,1.80740764 55.4408807,2.44043442 L55.4408807,15.5984822 C55.4408807,16.231509 54.9274412,16.7444951 54.2944336,16.7444951 L41.1372541,16.7444951 Z" id="Fill-26" fill="#38BB4C" sketch:type="MSShapeGroup"></path>
            <path d="M47.8076584,56.2762451 C43.5486897,56.2762451 40.0830905,52.8109045 40.0830905,48.5512083 C40.0830905,44.2915122 43.5486897,40.8266404 47.8076584,40.8266404 C52.067096,40.8266404 55.5326952,44.2915122 55.5326952,48.5512083 C55.5326952,52.8109045 52.067096,56.2762451 47.8076584,56.2762451" id="Fill-31" fill="#FF2F57" sketch:type="MSShapeGroup"></path>
            <path d="M27.8096224,36.4130303 C23.5506537,36.4130303 20.0850545,32.9476897 20.0850545,28.6879935 C20.0850545,24.4282974 23.5506537,20.9634256 27.8096224,20.9634256 C32.06906,20.9634256 35.5346592,24.4282974 35.5346592,28.6879935 C35.5346592,32.9476897 32.06906,36.4130303 27.8096224,36.4130303" id="Fill-31" fill="#FF2F57" sketch:type="MSShapeGroup"></path>
            <path d="M7.84397941,16.7444951 C3.58501072,16.7444951 0.119411507,13.2791544 0.119411507,9.01945829 C0.119411507,4.75976214 3.58501072,1.2948904 7.84397941,1.2948904 C12.103417,1.2948904 15.5690162,4.75976214 15.5690162,9.01945829 C15.5690162,13.2791544 12.103417,16.7444951 7.84397941,16.7444951" id="Fill-31" fill="#FF2F57" sketch:type="MSShapeGroup"></path>
        </g>
    </g>
</svg>