<svg xmlns="http://www.w3.org/2000/svg" width="121" height="126"><g fill="none" fill-rule="evenodd"><path fill="#277A9F" d="M85.218 94.143c2.025-1.417 6.65 1.694 10.33 6.95 3.68 5.255 5.02 10.665 2.996 12.083-2.024 1.417-6.65-1.694-10.33-6.95-3.68-5.255-5.02-10.665-2.996-12.083zm-48.436 0c-2.025-1.417-6.65 1.694-10.33 6.95-3.68 5.255-5.02 10.665-2.996 12.083 2.024 1.417 6.65-1.694 10.33-6.95 3.68-5.255 5.02-10.665 2.996-12.083zm24.194 8.23c-2.472 0-4.476 5.2-4.476 11.616 0 6.41 2.004 11.61 4.476 11.61 2.47 0 4.475-5.2 4.475-11.617 0-6.417-2-11.618-4.47-11.618zm24.242-70.516c2.025 1.417 6.65-1.694 10.33-6.95 3.68-5.255 5.02-10.665 2.996-12.083-2.024-1.417-6.65 1.694-10.33 6.95-3.68 5.255-5.02 10.665-2.996 12.083zm-48.436 0c-2.025 1.417-6.65-1.694-10.33-6.95-3.68-5.255-5.02-10.665-2.996-12.083 2.024-1.417 6.65 1.694 10.33 6.95 3.68 5.255 5.02 10.665 2.996 12.083zm24.194-8.23c-2.472 0-4.476-5.2-4.476-11.616C56.5 5.6 58.504.4 60.976.4c2.47 0 4.475 5.2 4.475 11.617 0 6.417-2 11.618-4.47 11.618z"/><path stroke="#277A9F" stroke-width="7.161" d="M95.504 42.164C88.287 30.28 75.208 22.34 60.27 22.34c-14.527 0-27.298 7.512-34.627 18.857m.785 45.67c7.435 10.688 19.82 17.686 33.843 17.686 14.05 0 26.46-7.024 33.89-17.745"/><path fill="#277A9F" d="M.61 47.695h8.62v12.13h9.725v-12.13h8.622v32.582h-8.622V67.344H9.23v12.933H.61V47.695zm34.185 0h21.053v7.218h-12.43v5.113h10.625v7.218H43.417v5.814H56.35v7.22H34.794V47.694zm27.87 0h8.622v25.363h12.33v7.22h-20.95V47.694zm26.567 0h8.922l5.113 13.534 1.804 5.31h.208l1.804-5.317 4.913-13.535h8.92V80.27h-8.02v-9.62c0-.835.044-1.754.127-2.756.082-1.003.174-2.03.274-3.083.1-1.05.217-2.08.35-3.08.135-1 .252-1.902.352-2.704h-.2l-2.708 7.62-4.51 10.978h-3.21l-4.51-10.977-2.608-7.62h-.2c.1.803.215 1.705.35 2.708.132 1.004.25 2.03.35 3.084.1 1.052.192 2.08.275 3.083.084 1.003.125 1.92.125 2.757v9.624h-7.918V47.7z"/></g></svg>