<?xml version="1.0" encoding="UTF-8"?>
<svg width="136px" height="99px" viewBox="0 0 136 99" version="1.1" xmlns="http://www.w3.org/2000/svg" xmlns:xlink="http://www.w3.org/1999/xlink">
    <!-- Generator: Sketch 40.3 (33839) - http://www.bohemiancoding.com/sketch -->
    <title>Steward Bot</title>
    <desc>Created with Sketch.</desc>
    <defs></defs>
    <g id="Page-1" stroke="none" stroke-width="1" fill="none" fill-rule="evenodd">
        <g id="Artboard" transform="translate(-152.000000, -59.000000)">
            <g id="strapline-layouts">
                <g id="Group" transform="translate(152.000000, 59.000000)">
                    <g id="Steward-Bot">
                        <polygon id="Path-2" fill="#EDEDF3" points="5.8278009 66.4652426 0.734375 69.9845742 0.734375 81.2027937 5.54244969 86.3969316 12.0346561 88.711447 26.6285988 91.5519038 39.8330863 93.4635705 60.4697607 95.002229 77.5404774 95.1253216 93.0277746 93.7507867 110.48269 90.4533949 121.28687 86.7923202 127.767886 84.8937089 130.884369 80.0837691 130.884369 69.1061401 124.330616 65.6819255 119.612063 47.6171422 109.130535 31.8295734 88.2196999 16.4560437 73.0737051 12.104904 71.1732287 4.12812527 64.6101508 1.21679688 59.8319168 3.95281145 58.5674193 11.5286064 42.6847334 16.4467185 30.0677337 22.6498436 17.5495811 35.8543311 10.3206837 48.0405064"></polygon>
                        <path d="M24.5259843,55.8178564 C24.8893273,55.9776513 25.2735958,56.0518417 25.6483527,56.0518417 C26.7555026,56.0518417 27.8074853,55.4050531 28.2716512,54.3245357 C32.9266268,43.4851196 41.9226954,34.863808 52.9466364,30.6691937 C54.4171293,30.1080095 55.1571316,28.4606009 54.599752,26.9863033 C54.0385678,25.5139081 52.3816475,24.7796128 50.9168616,25.3331877 C38.4547671,30.07567 28.2887721,39.8212524 23.0288589,52.0721895 C22.4087028,53.5179523 23.0764169,55.1977003 24.5259843,55.8178564 L24.5259843,55.8178564 Z M135.92581,70.9508074 C135.610025,68.4720852 133.454697,66.2691993 129.372319,64.2622523 C127.762957,50.6568639 121.700265,38.0597046 111.861469,28.2209086 C102.490643,18.8500831 90.6239749,12.8882141 77.7566863,10.9535552 L77.7566863,9.25478398 C77.7566863,4.15086098 73.6058253,0 68.5019023,0 C63.3979793,0 59.2471183,4.1527633 59.2471183,9.25478398 L59.2471183,10.9573599 C32.1828199,15.0701744 10.8939633,36.9354339 7.62387622,64.2622523 C3.51106164,66.273004 1.35573373,68.4873038 1.06277654,70.9907561 C1.02473015,71.1695742 1.00760928,71.3502945 1.00380464,71.5405264 C1.00380464,71.555745 1,71.5709636 1,71.5842798 L1,71.5842798 L1,71.5880844 L1,81.0996815 C1,91.5034664 35.9037567,98.4963926 68.5019023,98.4963926 C101.098146,98.4963926 136,91.5034664 136,81.0996815 L136,71.5880844 C136,71.37122 135.971465,71.1600626 135.92581,70.9508074 L135.92581,70.9508074 Z M64.9540766,9.2566863 C64.9540766,7.30110194 66.5444156,5.70886058 68.5019023,5.70886058 C70.459389,5.70886058 72.049728,7.30110194 72.049728,9.2566863 L72.049728,10.3714455 C70.8721923,10.3048643 69.6870473,10.2592086 68.4980977,10.2592086 C67.3053434,10.2592086 66.1278077,10.3010597 64.9540766,10.3695432 L64.9540766,9.2566863 L64.9540766,9.2566863 Z M68.4980977,15.9661669 C83.35331,15.9661669 97.3220415,21.7511203 107.826649,32.2557281 C118.297015,42.7279965 124.078164,56.6415607 124.112406,71.4435082 C122.49163,74.6279909 101.990333,81.8872418 68.5,81.8872418 C35.0020573,81.8872418 14.495054,74.6279909 12.8799848,71.4435082 C12.9560776,40.842798 37.8745596,15.9661669 68.4980977,15.9661669 L68.4980977,15.9661669 Z M68.5019023,92.7913367 C30.986261,92.7913367 7.86927543,84.4059127 6.70695826,81.1015839 L6.70695826,71.7421723 C6.75832089,71.6603726 6.90099484,71.4777499 7.17873348,71.2190345 C7.17873348,71.3445875 7.1711242,71.4644337 7.1711242,71.5899868 C7.1711242,82.0337204 42.7882507,87.5961024 68.4980977,87.5961024 C94.2060423,87.5961024 129.817462,82.0337204 129.817462,71.5899868 C129.817462,71.4644337 129.809853,71.3407829 129.809853,71.2190345 C130.099005,71.4834569 130.241679,71.6679819 130.289237,71.7497816 C130.289237,71.7611955 130.293042,71.7688048 130.293042,71.7764141 L130.30826,80.9722261 C129.12692,84.4021081 106.00613,92.7913367 68.5019023,92.7913367 L68.5019023,92.7913367 Z" id="Shape" fill="#30B1E8"></path>
                        <circle id="Oval-2" stroke="#FF2451" stroke-width="5" fill="#FFFFFF" cx="78.5" cy="65.5" r="6.5"></circle>
                        <circle id="Oval-2" stroke="#30BD44" stroke-width="5" fill="#FFFFFF" cx="100.5" cy="63.5" r="6.5"></circle>
                    </g>
                </g>
            </g>
        </g>
    </g>
</svg>