<svg width="111" height="113" viewBox="0 0 111 113" xmlns="http://www.w3.org/2000/svg" xmlns:xlink="http://www.w3.org/1999/xlink"><title>Logo Box</title><defs><path d="M47.4 20.817c0-11.79-8.837-17.59-19.74-12.956-10.9 4.637-19.74 17.952-19.74 29.742s8.84 17.59 19.74 12.955c10.903-4.635 19.74-17.95 19.74-29.74z" id="a"/><path d="M.443 36.852c-.54-1.236-.59-2.52-.13-3.396l17.032-32.39c.503-.954 1.53-1.264 2.654-.8 1.123.465 2.15 1.624 2.653 2.994l16.865 46.01c.322.678.51 1.42.51 2.133 0 1.897-1.33 2.884-2.967 2.208L2.968 39.523c-1.03-.425-1.984-1.435-2.524-2.67z" id="c"/></defs><g fill="none" fill-rule="evenodd"><path fill="#F3F3F9" d="M55.237.17l54.833 23.264-54.833 23.264L.404 23.434"/><path fill="#EDEDF3" d="M.404 23.46l54.833 23.226v66.035L.404 89.495"/><path fill="#FFF" d="M110.07 23.335V89.37l-54.833 23.363V46.698"/><path d="M29.457 25.202c-1.65-1.018-1.645-3.03.04-4.15l23.52-9.786c1.648-.676 2.613-.634 4.15-.04l24.174 10.19c1.995.97 2.664 2.663-.037 4.15l-24.12 9.464c-1.233.562-3.066.496-4.15.04l-23.576-9.868z" fill="#38BB4C" opacity=".13"/><path d="M29.457 30.676c-1.65-1.018-1.645-3.03.04-4.15l23.52-9.787c1.648-.676 2.613-.634 4.15-.04L81.34 26.89c1.995.97 2.664 2.663-.037 4.15l-24.12 9.464c-1.233.562-3.066.496-4.15.04l-23.576-9.868z" fill="#58C969"/><g transform="translate(55.54 38.79)"><path d="M42.004 13.26C37.02 2.575 26.56 1.053 18.64 9.86c-7.923 8.81-10.306 24.613-5.323 35.298 4.983 10.686 15.444 12.207 23.366 3.4 7.92-8.81 10.304-24.612 5.32-35.298z" fill="#FF2F57" opacity=".13"/><mask id="b" fill="#fff"><use xlink:href="#a"/></mask><path d="M41.37 18.08c0-11.79-8.84-17.59-19.74-12.956C10.726 9.76 1.89 23.074 1.89 34.864s8.837 17.592 19.74 12.956c10.9-4.635 19.74-17.95 19.74-29.74z" fill="#EF637E" mask="url(#b)" transform="rotate(-25 21.63 26.472)"/></g><g transform="translate(6.984 44.265)"><path d="M.443 36.852c-.54-1.236-.59-2.52-.13-3.396l17.032-32.39c.503-.954 1.53-1.264 2.654-.8 1.123.465 2.15 1.624 2.653 2.994l16.865 46.01c.322.678.51 1.42.51 2.133 0 1.897-1.33 2.884-2.967 2.208L2.968 39.523c-1.03-.425-1.984-1.435-2.524-2.67z" fill="#3792BB" opacity=".13"/><mask id="d" fill="#fff"><use xlink:href="#c"/></mask><path d="M7.57 34.662c-.54-1.236-.588-2.52-.13-3.396l17.034-32.39c.502-.953 1.53-1.264 2.654-.8 1.124.465 2.15 1.625 2.653 2.994l16.867 46.01c.32.68.51 1.42.51 2.133 0 1.897-1.33 2.885-2.968 2.208L10.094 37.333c-1.028-.425-1.984-1.435-2.524-2.67z" fill="#3AA7DB" mask="url(#d)"/></g></g></svg>